<svg width="45" height="45" viewBox="0 0 45 45" fill="none" xmlns="http://www.w3.org/2000/svg">
<circle cx="21.5" cy="21.5" r="21" fill="#F31010"/>
<circle cx="21.5" cy="21.5" r="21" stroke="black"/>
<circle cx="21.5" cy="21.5" r="21" stroke="url(#paint0_linear)"/>
<path d="M34.8359 27.9268C34.7311 30.2028 34.1172 32.2168 32.9941 33.9688C31.8711 35.7057 30.2913 37.0534 28.2549 38.0117C26.2334 38.9701 23.9199 39.4492 21.3145 39.4492C17.0169 39.4492 13.6328 38.0492 11.1621 35.249C8.69141 32.4489 7.45605 28.4958 7.45605 23.3896V21.7725C7.45605 18.568 8.01009 15.7679 9.11816 13.3721C10.2412 10.9613 11.8509 9.10449 13.9473 7.80176C16.0436 6.48405 18.4694 5.8252 21.2246 5.8252C25.1927 5.8252 28.3822 6.87337 30.793 8.96973C33.2038 11.0511 34.5739 13.9261 34.9033 17.5947H27.042C26.9821 15.6032 26.4805 14.1732 25.5371 13.3047C24.5938 12.4362 23.1562 12.002 21.2246 12.002C19.263 12.002 17.8255 12.7357 16.9121 14.2031C15.9987 15.6706 15.5195 18.014 15.4746 21.2334V23.5469C15.4746 27.0358 15.9089 29.529 16.7773 31.0264C17.6608 32.5238 19.1732 33.2725 21.3145 33.2725C23.1263 33.2725 24.5114 32.8457 25.4697 31.9922C26.4281 31.1387 26.9372 29.7835 26.9971 27.9268H34.8359Z" fill="white"/>
<defs>
<linearGradient id="paint0_linear" x1="21.5" y1="0" x2="21.5" y2="43" gradientUnits="userSpaceOnUse">
<stop stop-color="white"/>
<stop offset="1" stop-color="white" stop-opacity="0"/>
</linearGradient>
</defs>
</svg>
