<svg width="104" height="32" viewBox="0 0 104 32" fill="none" xmlns="http://www.w3.org/2000/svg">
<path d="M6.552 4.004C7.596 4.004 8.508 4.31 9.288 4.922C10.068 5.534 10.458 6.326 10.458 7.298C10.458 7.814 10.314 8.24 10.026 8.576C9.738 8.912 9.384 9.08 8.964 9.08C8.544 9.08 8.208 9.026 7.956 8.918C7.992 8.726 8.01 8.522 8.01 8.306C7.998 7.55 7.812 6.938 7.452 6.47C7.092 5.99 6.564 5.75 5.868 5.75C5.184 5.75 4.548 5.972 3.96 6.416C3.612 6.92 3.342 7.58 3.15 8.396C2.958 9.212 2.862 10.016 2.862 10.808C2.862 12.128 3.114 13.238 3.618 14.138C4.134 15.026 4.932 15.47 6.012 15.47C7.008 15.47 7.68 15.092 8.028 14.336C8.352 13.676 8.514 12.8 8.514 11.708C9.126 11.708 9.636 11.822 10.044 12.05C10.452 12.266 10.656 12.626 10.656 13.13C10.656 14.306 10.14 15.284 9.108 16.064C8.076 16.832 6.912 17.216 5.616 17.216C3.924 17.216 2.64 16.658 1.764 15.542C0.888 14.414 0.45 12.89 0.45 10.97C0.45 9.05 0.996 7.412 2.088 6.056C3.192 4.688 4.68 4.004 6.552 4.004ZM20.5615 10.448C20.5615 9.02 20.2675 7.868 19.6795 6.992C19.1035 6.104 18.1975 5.66 16.9615 5.66C16.2175 5.66 15.5575 5.9 14.9815 6.38C14.6575 6.884 14.3995 7.562 14.2075 8.414C14.0275 9.266 13.9375 10.076 13.9375 10.844C13.9375 12.26 14.2255 13.394 14.8015 14.246C15.3775 15.098 16.2895 15.524 17.5375 15.524C18.2215 15.524 18.8035 15.248 19.2835 14.696C20.1355 13.7 20.5615 12.284 20.5615 10.448ZM16.9255 17.216C15.1735 17.216 13.8415 16.64 12.9295 15.488C12.0175 14.324 11.5615 12.806 11.5615 10.934C11.5615 9.05 12.1255 7.424 13.2535 6.056C14.3815 4.688 15.8155 4.004 17.5555 4.004C19.3075 4.004 20.6395 4.592 21.5515 5.768C22.4755 6.944 22.9375 8.474 22.9375 10.358C22.9375 12.242 22.3735 13.856 21.2455 15.2C20.1175 16.544 18.6775 17.216 16.9255 17.216ZM24.5824 4.796C25.9264 4.34 27.3184 4.112 28.7584 4.112C30.1984 4.112 31.3924 4.418 32.3404 5.03C33.2884 5.642 33.7624 6.578 33.7624 7.838C33.7624 9.098 33.3184 10.16 32.4304 11.024C31.5424 11.876 30.4744 12.302 29.2264 12.302C28.3144 12.302 27.8584 11.954 27.8584 11.258C27.8584 11.042 27.9004 10.814 27.9844 10.574C28.3084 10.658 28.6024 10.7 28.8664 10.7C29.6944 10.7 30.3184 10.472 30.7384 10.016C31.1704 9.56 31.3864 8.93 31.3864 8.126C31.3864 7.31 31.1584 6.704 30.7024 6.308C30.2464 5.912 29.6104 5.714 28.7944 5.714C28.3744 5.714 27.8644 5.786 27.2644 5.93C27.1684 7.406 27.1204 8.714 27.1204 9.854C27.1204 13.046 27.2464 15.356 27.4984 16.784C27.1144 16.928 26.7064 17 26.2744 17C25.8424 17 25.4644 16.862 25.1404 16.586C24.8284 16.31 24.6724 15.944 24.6724 15.488C24.6724 15.032 24.7324 14.24 24.8524 13.112C24.9724 11.972 25.0324 11.06 25.0324 10.376C25.0324 8.288 24.8824 6.428 24.5824 4.796ZM35.2171 4.796C36.5611 4.34 37.9531 4.112 39.3931 4.112C40.8331 4.112 42.0271 4.418 42.9751 5.03C43.9231 5.642 44.3971 6.578 44.3971 7.838C44.3971 9.098 43.9531 10.16 43.0651 11.024C42.1771 11.876 41.1091 12.302 39.8611 12.302C38.9491 12.302 38.4931 11.954 38.4931 11.258C38.4931 11.042 38.5351 10.814 38.6191 10.574C38.9431 10.658 39.2371 10.7 39.5011 10.7C40.3291 10.7 40.9531 10.472 41.3731 10.016C41.8051 9.56 42.0211 8.93 42.0211 8.126C42.0211 7.31 41.7931 6.704 41.3371 6.308C40.8811 5.912 40.2451 5.714 39.4291 5.714C39.0091 5.714 38.4991 5.786 37.8991 5.93C37.8031 7.406 37.7551 8.714 37.7551 9.854C37.7551 13.046 37.8811 15.356 38.1331 16.784C37.7491 16.928 37.3411 17 36.9091 17C36.4771 17 36.0991 16.862 35.7751 16.586C35.4631 16.31 35.3071 15.944 35.3071 15.488C35.3071 15.032 35.3671 14.24 35.4871 13.112C35.6071 11.972 35.6671 11.06 35.6671 10.376C35.6671 8.288 35.5171 6.428 35.2171 4.796ZM44.8439 5.156C45.1319 4.532 45.6599 4.22 46.4279 4.22C47.8559 4.22 49.2059 6.272 50.4779 10.376C51.2219 9.26 51.8579 8.126 52.3859 6.974C52.9259 5.81 53.1959 4.856 53.1959 4.112C54.4679 4.112 55.1039 4.448 55.1039 5.12C55.1039 5.588 54.8159 6.284 54.2399 7.208C53.6639 8.132 53.0399 9.086 52.3679 10.07C51.7079 11.042 51.3179 11.756 51.1979 12.212C51.1619 12.68 51.1439 13.256 51.1439 13.94C51.1439 14.624 51.2279 15.572 51.3959 16.784C51.0119 16.928 50.6039 17 50.1719 17C49.7399 17 49.3619 16.862 49.0379 16.586C48.7259 16.31 48.5699 15.962 48.5699 15.542C48.5699 15.11 48.6419 14.018 48.7859 12.266C47.8619 8.666 46.5479 6.296 44.8439 5.156ZM56.7609 4.166L60.5589 4.22C62.5269 4.22 63.9669 4.148 64.8789 4.004C65.0109 4.256 65.0769 4.544 65.0769 4.868C65.0769 5.192 64.9329 5.486 64.6449 5.75C64.3569 6.002 64.0089 6.128 63.6009 6.128L61.5309 5.894C61.5309 5.978 61.5009 6.35 61.4409 7.01C61.2729 8.63 61.1889 10.256 61.1889 11.888C61.1889 13.52 61.3149 15.152 61.5669 16.784C61.1709 16.928 60.7569 17 60.3249 17C59.8929 17 59.5209 16.88 59.2089 16.64C58.8969 16.388 58.7409 16.016 58.7409 15.524C58.7409 15.02 58.8009 14.138 58.9209 12.878C59.0409 11.618 59.1009 10.394 59.1009 9.206C59.1009 8.006 59.0409 6.89 58.9209 5.858C57.4689 5.93 56.3349 6.134 55.5189 6.47C55.3749 6.194 55.3029 5.888 55.3029 5.552C55.3029 5.204 55.4409 4.886 55.7169 4.598C55.9929 4.31 56.3409 4.166 56.7609 4.166ZM74.3425 14.516C74.4865 14.84 74.5585 15.206 74.5585 15.614C74.5585 16.022 74.4145 16.376 74.1265 16.676C73.8505 16.964 73.5085 17.108 73.1005 17.108C71.8285 17.108 69.8365 17.036 67.1245 16.892C66.9085 16.88 66.7165 16.814 66.5485 16.694C66.3805 16.562 66.2965 16.4 66.2965 16.208C66.2965 15.572 66.3445 14.498 66.4405 12.986C66.5485 11.474 66.6025 10.064 66.6025 8.756C66.6025 7.436 66.4765 5.924 66.2245 4.22C67.1125 4.292 68.3065 4.328 69.8065 4.328C71.3065 4.328 72.7405 4.22 74.1085 4.004C74.2525 4.268 74.3245 4.586 74.3245 4.958C74.3245 5.318 74.1805 5.642 73.8925 5.93C73.6165 6.206 73.2685 6.344 72.8485 6.344C72.4405 6.344 71.7805 6.284 70.8685 6.164C69.9685 6.044 69.3025 5.984 68.8705 5.984C68.7745 7.196 68.7205 8.336 68.7085 9.404C69.4645 9.476 70.2745 9.512 71.1385 9.512C72.0145 9.512 72.7645 9.386 73.3885 9.134C73.5325 9.398 73.6045 9.716 73.6045 10.088C73.6045 10.448 73.4605 10.778 73.1725 11.078C72.8965 11.366 72.5605 11.51 72.1645 11.51C71.7805 11.51 71.2045 11.438 70.4365 11.294C69.6685 11.138 69.0865 11.06 68.6905 11.06C68.6905 12.956 68.7325 14.348 68.8165 15.236C69.3925 15.284 69.8425 15.308 70.1665 15.308C71.7505 15.308 73.1425 15.044 74.3425 14.516ZM81.6458 4.004C82.6898 4.004 83.6018 4.31 84.3818 4.922C85.1618 5.534 85.5518 6.326 85.5518 7.298C85.5518 7.814 85.4078 8.24 85.1198 8.576C84.8318 8.912 84.4778 9.08 84.0578 9.08C83.6378 9.08 83.3018 9.026 83.0498 8.918C83.0858 8.726 83.1038 8.522 83.1038 8.306C83.0918 7.55 82.9058 6.938 82.5458 6.47C82.1858 5.99 81.6578 5.75 80.9618 5.75C80.2778 5.75 79.6418 5.972 79.0538 6.416C78.7058 6.92 78.4358 7.58 78.2438 8.396C78.0518 9.212 77.9558 10.016 77.9558 10.808C77.9558 12.128 78.2078 13.238 78.7118 14.138C79.2278 15.026 80.0258 15.47 81.1058 15.47C82.1018 15.47 82.7738 15.092 83.1218 14.336C83.4458 13.676 83.6078 12.8 83.6078 11.708C84.2198 11.708 84.7298 11.822 85.1378 12.05C85.5458 12.266 85.7498 12.626 85.7498 13.13C85.7498 14.306 85.2338 15.284 84.2018 16.064C83.1698 16.832 82.0058 17.216 80.7098 17.216C79.0178 17.216 77.7338 16.658 76.8578 15.542C75.9818 14.414 75.5438 12.89 75.5438 10.97C75.5438 9.05 76.0898 7.412 77.1818 6.056C78.2858 4.688 79.7738 4.004 81.6458 4.004ZM90.0392 16.784C89.6552 16.928 89.2472 17 88.8152 17C88.3832 17 88.0052 16.862 87.6812 16.586C87.3692 16.31 87.2132 15.932 87.2132 15.452C87.2132 14.972 87.2732 14.054 87.3932 12.698C87.5132 11.33 87.5732 10.238 87.5732 9.422C87.5732 7.322 87.4472 5.66 87.1952 4.436C87.5792 4.292 87.9872 4.22 88.4192 4.22C88.8512 4.22 89.2232 4.358 89.5352 4.634C89.8592 4.91 90.0212 5.252 90.0212 5.66C90.0212 6.056 90.0032 6.44 89.9672 6.812C89.9432 7.184 89.9072 7.61 89.8592 8.09C89.8112 8.57 89.7752 8.99 89.7512 9.35C90.2312 9.398 91.0592 9.422 92.2352 9.422C93.4112 9.422 94.3172 9.374 94.9532 9.278C94.9532 7.37 94.8272 5.72 94.5752 4.328C94.9592 4.184 95.3672 4.112 95.7992 4.112C96.2312 4.112 96.6032 4.25 96.9152 4.526C97.2392 4.802 97.4012 5.186 97.4012 5.678C97.4012 6.158 97.3412 7.016 97.2212 8.252C97.1012 9.488 97.0412 10.478 97.0412 11.222C97.0412 13.574 97.1672 15.464 97.4192 16.892C97.0352 17.036 96.6272 17.108 96.1952 17.108C95.7632 17.108 95.3852 16.97 95.0612 16.694C94.7492 16.418 94.5932 16.052 94.5932 15.596C94.5932 15.14 94.6412 14.396 94.7372 13.364C94.8332 12.332 94.8932 11.624 94.9172 11.24C93.7412 11.156 91.9892 11.114 89.6612 11.114V11.582C89.6612 13.706 89.7872 15.44 90.0392 16.784Z" fill="#E70E0E"/>
<path d="M11.6001 25.6C11.9001 26.2333 12.2801 26.7867 12.7401 27.26C13.2001 27.7333 13.6567 28.04 14.1101 28.18C14.1101 28.46 14.0367 28.6767 13.8901 28.83C13.7434 28.9833 13.5334 29.06 13.2601 29.06C12.9067 29.06 12.5034 28.8333 12.0501 28.38C11.5967 27.92 11.2001 27.38 10.8601 26.76C10.5267 26.1333 10.3301 25.5833 10.2701 25.11C10.7501 25.11 11.1434 24.9833 11.4501 24.73C11.7634 24.47 11.9201 24.1033 11.9201 23.63C11.9201 23.03 11.5467 22.73 10.8001 22.73C10.5601 22.73 10.2667 22.77 9.92008 22.85C9.87341 23.75 9.85008 24.4767 9.85008 25.03C9.85008 26.8033 9.92008 28.0867 10.0601 28.88C9.84674 28.96 9.62008 29 9.38008 29C9.14008 29 8.93008 28.9233 8.75008 28.77C8.57674 28.6167 8.49008 28.4133 8.49008 28.16C8.49008 27.9067 8.52341 27.4667 8.59008 26.84C8.65674 26.2067 8.69008 25.7 8.69008 25.32C8.69008 24.1533 8.60674 23.1167 8.44008 22.21C9.34008 21.9633 10.1967 21.84 11.0101 21.84C12.4967 21.84 13.2401 22.37 13.2401 23.43C13.2401 23.8967 13.0801 24.3367 12.7601 24.75C12.4467 25.1567 12.0601 25.44 11.6001 25.6ZM15.627 26.73C15.627 27.21 15.7037 27.59 15.857 27.87C16.0104 28.1433 16.267 28.28 16.627 28.28C16.987 28.28 17.267 28.16 17.467 27.92C17.6737 27.6733 17.777 27.3767 17.777 27.03C18.0037 27.03 18.2004 27.0867 18.367 27.2C18.5337 27.3133 18.617 27.47 18.617 27.67C18.617 28.0833 18.397 28.43 17.957 28.71C17.517 28.9833 17.0537 29.12 16.567 29.12C15.807 29.12 15.257 28.9167 14.917 28.51C14.577 28.0967 14.407 27.4867 14.407 26.68C14.407 25.8733 14.6337 25.1967 15.087 24.65C15.547 24.0967 16.157 23.82 16.917 23.82C17.437 23.82 17.8537 23.94 18.167 24.18C18.487 24.4133 18.647 24.78 18.647 25.28C18.647 25.7733 18.4204 26.1467 17.967 26.4C17.5204 26.6467 16.9737 26.77 16.327 26.77C16.1004 26.77 15.867 26.7567 15.627 26.73ZM15.637 25.94C15.837 25.98 16.047 26 16.267 26C16.747 26 17.1504 25.91 17.477 25.73C17.517 25.57 17.537 25.4433 17.537 25.35C17.537 25.1167 17.4537 24.94 17.287 24.82C17.1204 24.7 16.8904 24.64 16.597 24.64C16.3104 24.64 16.0504 24.7333 15.817 24.92C15.697 25.2667 15.637 25.6067 15.637 25.94ZM20.8803 28.02C21.1536 28.12 21.4703 28.17 21.8303 28.17C22.1903 28.17 22.507 28.1 22.7803 27.96C23.107 27.4 23.2703 26.73 23.2703 25.95C23.2703 25.1633 23.1336 24.77 22.8603 24.77C22.5203 24.77 22.137 25.1133 21.7103 25.8C21.2903 26.4867 21.0136 27.2267 20.8803 28.02ZM20.8803 25.97C21.587 24.5767 22.3703 23.88 23.2303 23.88C23.6836 23.88 24.007 24.0667 24.2003 24.44C24.4003 24.8067 24.5003 25.2733 24.5003 25.84C24.5003 26.6533 24.2603 27.3933 23.7803 28.06C23.3003 28.7267 22.697 29.06 21.9703 29.06C21.557 29.06 21.1803 28.9933 20.8403 28.86C20.8536 29.7733 20.9103 30.61 21.0103 31.37C20.797 31.45 20.577 31.49 20.3503 31.49C20.1236 31.49 19.937 31.4133 19.7903 31.26C19.6436 31.1133 19.5703 30.8867 19.5703 30.58C19.5703 30.2733 19.6103 29.75 19.6903 29.01C19.7703 28.27 19.8103 27.69 19.8103 27.27C19.8103 25.8833 19.737 24.8133 19.5903 24.06C19.8036 23.98 20.027 23.94 20.2603 23.94C20.5003 23.94 20.6836 24.01 20.8103 24.15C20.9436 24.2833 21.0103 24.4967 21.0103 24.79C21.0103 25.0767 20.967 25.47 20.8803 25.97ZM29.8927 24.29C29.7127 25.0567 29.6227 25.8267 29.6227 26.6C29.6227 27.3667 29.7094 28.1267 29.8827 28.88C29.6427 28.96 29.3961 29 29.1427 29C28.8894 29 28.7127 28.9267 28.6127 28.78C28.5127 28.6267 28.4627 28.41 28.4627 28.13C28.4627 27.8433 28.5061 27.4533 28.5927 26.96C28.1194 27.9733 27.6627 28.6133 27.2227 28.88C27.0227 29 26.8161 29.06 26.6027 29.06C26.0961 29.06 25.7027 28.8733 25.4227 28.5C25.1427 28.12 25.0027 27.65 25.0027 27.09C25.0027 26.2367 25.2394 25.49 25.7127 24.85C26.1861 24.2033 26.7994 23.88 27.5527 23.88C28.3127 23.88 29.0927 24.0167 29.8927 24.29ZM28.5827 24.89C28.2294 24.7833 27.9294 24.73 27.6827 24.73C27.1827 24.73 26.8094 24.84 26.5627 25.06C26.3361 25.62 26.2227 26.19 26.2227 26.77C26.2227 27.0767 26.2694 27.3867 26.3627 27.7C26.4627 28.0133 26.6127 28.17 26.8127 28.17C27.0461 28.17 27.3461 27.8267 27.7127 27.14C28.0794 26.4533 28.3694 25.7033 28.5827 24.89ZM30.812 24.03C31.0253 23.97 31.2386 23.94 31.452 23.94C31.672 23.94 31.8586 24.0067 32.012 24.14C32.1653 24.2733 32.242 24.4467 32.242 24.66C32.242 24.8667 32.2053 25.23 32.132 25.75C32.0653 26.2633 32.032 26.6633 32.032 26.95C32.032 27.6967 32.102 28.34 32.242 28.88C32.0353 28.96 31.812 29 31.572 29C31.332 29 31.142 28.9467 31.002 28.84C30.862 28.7267 30.792 28.5667 30.792 28.36C30.792 28.1467 30.832 27.8 30.912 27.32C30.992 26.84 31.032 26.4433 31.032 26.13C31.032 25.2967 30.9586 24.5967 30.812 24.03ZM30.942 21.77C31.1753 21.6633 31.4053 21.61 31.632 21.61C31.8586 21.61 32.0253 21.67 32.132 21.79C32.2453 21.9033 32.302 22.0733 32.302 22.3C32.302 22.5267 32.2253 22.7267 32.072 22.9C31.9253 23.0733 31.732 23.16 31.492 23.16C30.9986 23.16 30.752 22.9033 30.752 22.39C30.752 22.1633 30.8153 21.9567 30.942 21.77ZM34.7908 28.88C34.5841 28.96 34.3641 29 34.1308 29C33.8974 29 33.7074 28.9467 33.5608 28.84C33.4208 28.7267 33.3508 28.5733 33.3508 28.38C33.3508 28.18 33.3808 27.82 33.4408 27.3C33.5008 26.78 33.5308 26.2767 33.5308 25.79C33.5308 25.2967 33.4541 24.72 33.3008 24.06C33.5141 23.98 33.7241 23.94 33.9308 23.94C34.1374 23.94 34.3141 24.01 34.4608 24.15C34.6141 24.29 34.6908 24.4767 34.6908 24.71C34.6908 24.83 34.6708 25.01 34.6308 25.25C34.5908 25.4833 34.5674 25.66 34.5608 25.78C34.8208 25.1867 35.1274 24.7233 35.4808 24.39C35.8408 24.05 36.1974 23.88 36.5508 23.88C36.7974 23.88 36.9941 23.9667 37.1408 24.14C37.2874 24.3133 37.3608 24.5333 37.3608 24.8C37.3608 25.06 37.2941 25.2733 37.1608 25.44C37.0274 25.6 36.8608 25.68 36.6608 25.68C36.4674 25.68 36.3108 25.66 36.1908 25.62C36.2108 25.54 36.2208 25.4667 36.2208 25.4C36.2208 25.1267 36.1241 24.99 35.9308 24.99C35.6374 24.99 35.3608 25.2867 35.1008 25.88C34.8474 26.4667 34.6774 27.0167 34.5908 27.53C34.6241 28.03 34.6908 28.48 34.7908 28.88ZM40.8034 22.22C41.55 21.9667 42.3234 21.84 43.1234 21.84C43.9234 21.84 44.5867 22.01 45.1134 22.35C45.64 22.69 45.9034 23.21 45.9034 23.91C45.9034 24.61 45.6567 25.2 45.1634 25.68C44.67 26.1533 44.0767 26.39 43.3834 26.39C42.8767 26.39 42.6234 26.1967 42.6234 25.81C42.6234 25.69 42.6467 25.5633 42.6934 25.43C42.8734 25.4767 43.0367 25.5 43.1834 25.5C43.6434 25.5 43.99 25.3733 44.2234 25.12C44.4634 24.8667 44.5834 24.5167 44.5834 24.07C44.5834 23.6167 44.4567 23.28 44.2034 23.06C43.95 22.84 43.5967 22.73 43.1434 22.73C42.91 22.73 42.6267 22.77 42.2934 22.85C42.24 23.67 42.2134 24.3967 42.2134 25.03C42.2134 26.8033 42.2834 28.0867 42.4234 28.88C42.21 28.96 41.9834 29 41.7434 29C41.5034 29 41.2934 28.9233 41.1134 28.77C40.94 28.6167 40.8534 28.4133 40.8534 28.16C40.8534 27.9067 40.8867 27.4667 40.9534 26.84C41.02 26.2067 41.0534 25.7 41.0534 25.32C41.0534 24.16 40.97 23.1267 40.8034 22.22ZM51.2416 24.96L51.1416 27.16C51.1416 27.7467 51.2382 28.34 51.4316 28.94C51.2249 29.02 51.0149 29.06 50.8016 29.06C50.2216 29.06 49.9316 28.7533 49.9316 28.14C49.9316 27.6867 49.9716 27.1533 50.0516 26.54C50.1316 25.9267 50.1716 25.55 50.1716 25.41C50.1716 25.0633 50.0149 24.89 49.7016 24.89C49.3682 24.89 48.9982 25.2033 48.5916 25.83C48.1849 26.45 47.9516 26.97 47.8916 27.39C47.9049 27.5833 47.9716 28.08 48.0916 28.88C47.8849 28.96 47.6582 29 47.4116 29C46.8982 29 46.6416 28.75 46.6416 28.25C46.6416 28.01 46.6782 27.54 46.7516 26.84C46.8249 26.1333 46.8616 25.5667 46.8616 25.14C46.8616 23.72 46.7816 22.5467 46.6216 21.62C46.8349 21.54 47.0549 21.5 47.2816 21.5C47.5082 21.5 47.6949 21.5767 47.8416 21.73C47.9949 21.8767 48.0716 22.08 48.0716 22.34C48.0716 22.6 48.0349 23.1367 47.9616 23.95C47.8949 24.7633 47.8616 25.3967 47.8616 25.85C48.0949 25.3567 48.4349 24.9067 48.8816 24.5C49.3349 24.0867 49.7849 23.88 50.2316 23.88C50.9049 23.88 51.2416 24.24 51.2416 24.96ZM54.2716 29.12C53.5383 29.12 52.9983 28.9067 52.6516 28.48C52.305 28.0467 52.1316 27.4467 52.1316 26.68C52.1316 25.9067 52.3616 25.2367 52.8216 24.67C53.2816 24.1033 53.8716 23.82 54.5916 23.82C56.0716 23.82 56.8116 24.6533 56.8116 26.32C56.8116 27.1 56.5716 27.7633 56.0916 28.31C55.6116 28.85 55.005 29.12 54.2716 29.12ZM53.5516 24.92C53.4316 25.3067 53.3716 25.6933 53.3716 26.08C53.3716 26.4667 53.385 26.7667 53.4116 26.98C53.4383 27.1933 53.4883 27.4067 53.5616 27.62C53.715 28.0533 54.015 28.27 54.4616 28.27C54.915 28.27 55.2116 28.15 55.3516 27.91C55.4983 27.67 55.5716 27.3 55.5716 26.8C55.5716 25.38 55.235 24.67 54.5616 24.67C54.175 24.67 53.8383 24.7533 53.5516 24.92ZM57.9881 22.47C58.2015 22.3633 58.4181 22.31 58.6381 22.31C58.8581 22.31 59.0348 22.38 59.1681 22.52C59.3081 22.66 59.3781 22.8667 59.3781 23.14C59.3781 23.4133 59.3615 23.7233 59.3281 24.07C59.8281 24.07 60.3048 24 60.7581 23.86C60.8381 23.9933 60.8781 24.15 60.8781 24.33C60.8781 24.5033 60.7981 24.6467 60.6381 24.76C60.4848 24.8667 60.3281 24.92 60.1681 24.92C60.0081 24.92 59.8281 24.9 59.6281 24.86C59.4281 24.82 59.2981 24.7967 59.2381 24.79C59.2315 24.85 59.2115 24.97 59.1781 25.15C59.1515 25.33 59.1281 25.4867 59.1081 25.62C59.0548 25.9867 59.0281 26.38 59.0281 26.8C59.0281 27.7133 59.3248 28.17 59.9181 28.17C60.1381 28.17 60.3915 28.0933 60.6781 27.94C60.7648 28.0667 60.8081 28.23 60.8081 28.43C60.8081 28.63 60.6981 28.7867 60.4781 28.9C60.2648 29.0067 60.0081 29.06 59.7081 29.06C58.5348 29.06 57.9481 28.3933 57.9481 27.06C57.9481 26.8667 57.9748 26.5167 58.0281 26.01C58.0881 25.5033 58.1181 25.0933 58.1181 24.78C57.7981 24.8 57.5415 24.8567 57.3481 24.95C57.2681 24.83 57.2281 24.6933 57.2281 24.54C57.2281 24.38 57.2848 24.25 57.3981 24.15C57.5115 24.0433 57.6515 23.99 57.8181 23.99C57.9848 23.99 58.0948 23.9933 58.1481 24C58.1548 23.9467 58.1581 23.8767 58.1581 23.79C58.1581 23.29 58.1015 22.85 57.9881 22.47ZM63.3634 29.12C62.6301 29.12 62.0901 28.9067 61.7434 28.48C61.3968 28.0467 61.2234 27.4467 61.2234 26.68C61.2234 25.9067 61.4534 25.2367 61.9134 24.67C62.3734 24.1033 62.9634 23.82 63.6834 23.82C65.1634 23.82 65.9034 24.6533 65.9034 26.32C65.9034 27.1 65.6634 27.7633 65.1834 28.31C64.7034 28.85 64.0968 29.12 63.3634 29.12ZM62.6434 24.92C62.5234 25.3067 62.4634 25.6933 62.4634 26.08C62.4634 26.4667 62.4768 26.7667 62.5034 26.98C62.5301 27.1933 62.5801 27.4067 62.6534 27.62C62.8068 28.0533 63.1068 28.27 63.5534 28.27C64.0068 28.27 64.3034 28.15 64.4434 27.91C64.5901 27.67 64.6634 27.3 64.6634 26.8C64.6634 25.38 64.3268 24.67 63.6534 24.67C63.2668 24.67 62.9301 24.7533 62.6434 24.92ZM68.6799 29.12C67.9666 29.12 67.4199 28.93 67.0399 28.55C66.6599 28.17 66.4699 27.6233 66.4699 26.91C66.4699 26.0433 66.7133 25.3133 67.1999 24.72C67.6866 24.12 68.3333 23.82 69.1399 23.82C69.5999 23.82 69.9733 23.9133 70.2599 24.1C70.5466 24.28 70.6899 24.55 70.6899 24.91C70.6899 25.1433 70.5966 25.3533 70.4099 25.54C70.2233 25.72 70.0133 25.81 69.7799 25.81C69.7266 25.81 69.6599 25.8033 69.5799 25.79C69.5999 25.7033 69.6099 25.6267 69.6099 25.56C69.6099 25.32 69.5466 25.1167 69.4199 24.95C69.2933 24.7833 69.0833 24.7 68.7899 24.7C68.4966 24.7 68.2233 24.82 67.9699 25.06C67.7899 25.5267 67.6999 26.11 67.6999 26.81C67.6999 27.7633 68.0599 28.24 68.7799 28.24C69.1666 28.24 69.4533 28.1167 69.6399 27.87C69.8333 27.6167 69.9299 27.3333 69.9299 27.02C70.1566 27.02 70.3533 27.0767 70.5199 27.19C70.6866 27.3033 70.7699 27.46 70.7699 27.66C70.7699 28.0933 70.5466 28.4467 70.0999 28.72C69.6599 28.9867 69.1866 29.12 68.6799 29.12ZM73.4709 29.12C72.7375 29.12 72.1975 28.9067 71.8509 28.48C71.5042 28.0467 71.3309 27.4467 71.3309 26.68C71.3309 25.9067 71.5609 25.2367 72.0209 24.67C72.4809 24.1033 73.0709 23.82 73.7909 23.82C75.2709 23.82 76.0109 24.6533 76.0109 26.32C76.0109 27.1 75.7709 27.7633 75.2909 28.31C74.8109 28.85 74.2042 29.12 73.4709 29.12ZM72.7509 24.92C72.6309 25.3067 72.5709 25.6933 72.5709 26.08C72.5709 26.4667 72.5842 26.7667 72.6109 26.98C72.6375 27.1933 72.6875 27.4067 72.7609 27.62C72.9142 28.0533 73.2142 28.27 73.6609 28.27C74.1142 28.27 74.4109 28.15 74.5509 27.91C74.6975 27.67 74.7709 27.3 74.7709 26.8C74.7709 25.38 74.4342 24.67 73.7609 24.67C73.3742 24.67 73.0375 24.7533 72.7509 24.92ZM78.0873 28.02C78.3607 28.12 78.6773 28.17 79.0373 28.17C79.3973 28.17 79.714 28.1 79.9873 27.96C80.314 27.4 80.4773 26.73 80.4773 25.95C80.4773 25.1633 80.3407 24.77 80.0673 24.77C79.7273 24.77 79.344 25.1133 78.9173 25.8C78.4973 26.4867 78.2207 27.2267 78.0873 28.02ZM78.0873 25.97C78.794 24.5767 79.5773 23.88 80.4373 23.88C80.8907 23.88 81.214 24.0667 81.4073 24.44C81.6073 24.8067 81.7073 25.2733 81.7073 25.84C81.7073 26.6533 81.4673 27.3933 80.9873 28.06C80.5073 28.7267 79.904 29.06 79.1773 29.06C78.764 29.06 78.3873 28.9933 78.0473 28.86C78.0607 29.7733 78.1173 30.61 78.2173 31.37C78.004 31.45 77.784 31.49 77.5573 31.49C77.3307 31.49 77.144 31.4133 76.9973 31.26C76.8507 31.1133 76.7773 30.8867 76.7773 30.58C76.7773 30.2733 76.8173 29.75 76.8973 29.01C76.9773 28.27 77.0173 27.69 77.0173 27.27C77.0173 25.8833 76.944 24.8133 76.7973 24.06C77.0107 23.98 77.234 23.94 77.4673 23.94C77.7073 23.94 77.8907 24.01 78.0173 24.15C78.1507 24.2833 78.2173 24.4967 78.2173 24.79C78.2173 25.0767 78.174 25.47 78.0873 25.97ZM82.5698 24.03C82.7831 23.97 82.9964 23.94 83.2098 23.94C83.4298 23.94 83.6164 24.0067 83.7698 24.14C83.9231 24.2733 83.9998 24.4467 83.9998 24.66C83.9998 24.8667 83.9631 25.23 83.8898 25.75C83.8231 26.2633 83.7898 26.6633 83.7898 26.95C83.7898 27.6967 83.8598 28.34 83.9998 28.88C83.7931 28.96 83.5698 29 83.3298 29C83.0898 29 82.8998 28.9467 82.7598 28.84C82.6198 28.7267 82.5498 28.5667 82.5498 28.36C82.5498 28.1467 82.5898 27.8 82.6698 27.32C82.7498 26.84 82.7898 26.4433 82.7898 26.13C82.7898 25.2967 82.7164 24.5967 82.5698 24.03ZM82.6998 21.77C82.9331 21.6633 83.1631 21.61 83.3898 21.61C83.6164 21.61 83.7831 21.67 83.8898 21.79C84.0031 21.9033 84.0598 22.0733 84.0598 22.3C84.0598 22.5267 83.9831 22.7267 83.8298 22.9C83.6831 23.0733 83.4898 23.16 83.2498 23.16C82.7564 23.16 82.5098 22.9033 82.5098 22.39C82.5098 22.1633 82.5731 21.9567 82.6998 21.77ZM85.9786 26.73C85.9786 27.21 86.0553 27.59 86.2086 27.87C86.3619 28.1433 86.6186 28.28 86.9786 28.28C87.3386 28.28 87.6186 28.16 87.8186 27.92C88.0253 27.6733 88.1286 27.3767 88.1286 27.03C88.3553 27.03 88.5519 27.0867 88.7186 27.2C88.8853 27.3133 88.9686 27.47 88.9686 27.67C88.9686 28.0833 88.7486 28.43 88.3086 28.71C87.8686 28.9833 87.4053 29.12 86.9186 29.12C86.1586 29.12 85.6086 28.9167 85.2686 28.51C84.9286 28.0967 84.7586 27.4867 84.7586 26.68C84.7586 25.8733 84.9853 25.1967 85.4386 24.65C85.8986 24.0967 86.5086 23.82 87.2686 23.82C87.7886 23.82 88.2053 23.94 88.5186 24.18C88.8386 24.4133 88.9986 24.78 88.9986 25.28C88.9986 25.7733 88.7719 26.1467 88.3186 26.4C87.8719 26.6467 87.3253 26.77 86.6786 26.77C86.4519 26.77 86.2186 26.7567 85.9786 26.73ZM85.9886 25.94C86.1886 25.98 86.3986 26 86.6186 26C87.0986 26 87.5019 25.91 87.8286 25.73C87.8686 25.57 87.8886 25.4433 87.8886 25.35C87.8886 25.1167 87.8053 24.94 87.6386 24.82C87.4719 24.7 87.2419 24.64 86.9486 24.64C86.6619 24.64 86.4019 24.7333 86.1686 24.92C86.0486 25.2667 85.9886 25.6067 85.9886 25.94ZM91.4119 28.88C91.2052 28.96 90.9852 29 90.7519 29C90.5185 29 90.3285 28.9467 90.1819 28.84C90.0419 28.7267 89.9719 28.5733 89.9719 28.38C89.9719 28.18 90.0019 27.82 90.0619 27.3C90.1219 26.78 90.1519 26.2767 90.1519 25.79C90.1519 25.2967 90.0752 24.72 89.9219 24.06C90.1352 23.98 90.3452 23.94 90.5519 23.94C90.7585 23.94 90.9352 24.01 91.0819 24.15C91.2352 24.29 91.3119 24.4767 91.3119 24.71C91.3119 24.83 91.2919 25.01 91.2519 25.25C91.2119 25.4833 91.1885 25.66 91.1819 25.78C91.4419 25.1867 91.7485 24.7233 92.1019 24.39C92.4619 24.05 92.8185 23.88 93.1719 23.88C93.4185 23.88 93.6152 23.9667 93.7619 24.14C93.9085 24.3133 93.9819 24.5333 93.9819 24.8C93.9819 25.06 93.9152 25.2733 93.7819 25.44C93.6485 25.6 93.4819 25.68 93.2819 25.68C93.0885 25.68 92.9319 25.66 92.8119 25.62C92.8319 25.54 92.8419 25.4667 92.8419 25.4C92.8419 25.1267 92.7452 24.99 92.5519 24.99C92.2585 24.99 91.9819 25.2867 91.7219 25.88C91.4685 26.4667 91.2985 27.0167 91.2119 27.53C91.2452 28.03 91.3119 28.48 91.4119 28.88Z" fill="black"/>
</svg>
