<svg width="68" height="16" viewBox="0 0 68 16" fill="none" xmlns="http://www.w3.org/2000/svg">
<path d="M14.2559 11.7148C14.2441 12.2012 14.1416 12.6377 13.9482 13.0244C13.7607 13.4053 13.5 13.7422 13.166 14.0352C12.8379 14.3281 12.4482 14.5771 11.9971 14.7822C11.5518 14.9932 11.0654 15.1631 10.5381 15.292C10.0166 15.4209 9.46582 15.5146 8.88574 15.5732C8.31152 15.6377 7.73145 15.6699 7.14551 15.6699C6.68848 15.6699 6.23145 15.6523 5.77441 15.6172C5.31738 15.582 4.87207 15.5322 4.43848 15.4678C4.01074 15.4092 3.59766 15.333 3.19922 15.2393C2.80078 15.1514 2.43164 15.0488 2.0918 14.9316L2.30273 14.5361C2.10352 14.5947 1.90137 14.6562 1.69629 14.7207C1.49121 14.791 1.28613 14.8613 1.08105 14.9316C1.43262 13.877 1.73438 12.8223 1.98633 11.7676C2.24414 10.707 2.44043 9.63184 2.5752 8.54199C2.15332 8.27246 1.77539 7.99414 1.44141 7.70703C1.10742 7.41992 0.832031 7.13574 0.615234 6.85449C0.9375 6.9541 1.27148 7.04785 1.61719 7.13574C1.96875 7.21777 2.3291 7.29102 2.69824 7.35547C2.72754 6.99219 2.74805 6.63477 2.75977 6.2832C2.77734 5.93164 2.78613 5.57715 2.78613 5.21973V4.92969C2.42871 5.04688 2.07422 5.17285 1.72266 5.30762C1.37109 5.44238 1.03125 5.5918 0.703125 5.75586C0.791016 5.42773 0.858398 5.1084 0.905273 4.79785C0.952148 4.4873 0.975586 4.18262 0.975586 3.88379C0.975586 3.37402 0.911133 2.88477 0.782227 2.41602C0.65332 1.94727 0.47168 1.49316 0.237305 1.05371C0.916992 0.948242 1.53516 0.863281 2.0918 0.798828C2.64844 0.728516 3.16406 0.672852 3.63867 0.631836C4.11914 0.59082 4.57324 0.561523 5.00098 0.543945C5.43457 0.526367 5.8623 0.517578 6.28418 0.517578C6.6416 0.517578 7.04883 0.526367 7.50586 0.543945C7.96289 0.561523 8.43457 0.599609 8.9209 0.658203C9.41309 0.716797 9.90234 0.801758 10.3887 0.913086C10.8809 1.02441 11.3438 1.17676 11.7773 1.37012C12.2109 1.56348 12.6006 1.80371 12.9463 2.09082C13.292 2.37207 13.5615 2.71191 13.7549 3.11035C13.8779 3.04004 14.0039 2.95801 14.1328 2.86426C14.2676 2.77051 14.3994 2.67383 14.5283 2.57422C14.5576 2.73242 14.5752 2.89062 14.5811 3.04883C14.5928 3.20703 14.5986 3.35937 14.5986 3.50586C14.5986 3.96289 14.543 4.41113 14.4316 4.85059C14.3262 5.29004 14.1738 5.71191 13.9746 6.11621C13.7812 6.52051 13.5469 6.90723 13.2715 7.27637C12.9961 7.63965 12.6885 7.97363 12.3486 8.27832C12.6709 8.46582 12.9404 8.67969 13.1572 8.91992C13.374 9.1543 13.5527 9.39746 13.6934 9.64941C13.8398 9.90137 13.9512 10.1475 14.0273 10.3877C14.1035 10.6279 14.1562 10.8447 14.1855 11.0381C14.2207 11.2314 14.2412 11.3896 14.2471 11.5127C14.2529 11.6357 14.2559 11.7031 14.2559 11.7148ZM7.72559 10.168C7.29199 10.168 6.87598 10.1299 6.47754 10.0537C6.47754 10.3643 6.48047 10.6689 6.48633 10.9678C6.49219 11.2666 6.50098 11.5684 6.5127 11.873C6.81152 11.9668 7.0957 12.0312 7.36523 12.0664C7.63477 12.0957 7.89258 12.1104 8.13867 12.1104C8.44336 12.1104 8.7627 12.0752 9.09668 12.0049C9.43652 11.9287 9.74707 11.8086 10.0283 11.6445C10.3154 11.4746 10.5498 11.2549 10.7314 10.9854C10.9189 10.7158 11.0127 10.3818 11.0127 9.9834C11.0127 9.88379 11.0039 9.77832 10.9863 9.66699C10.9688 9.55566 10.9424 9.44141 10.9072 9.32422C10.4092 9.59375 9.89062 9.80176 9.35156 9.94824C8.81836 10.0947 8.27637 10.168 7.72559 10.168ZM6.54785 4.06836C6.53027 4.64844 6.51562 5.22559 6.50391 5.7998C6.49805 6.36816 6.48926 6.94238 6.47754 7.52246C6.89941 7.45801 7.27734 7.35547 7.61133 7.21484C7.95117 7.06836 8.24707 6.87207 8.49902 6.62598C8.75098 6.37988 8.95312 6.07812 9.10547 5.7207C9.26367 5.36328 9.37207 4.93848 9.43066 4.44629L10.2217 4.31445C9.96973 4.16797 9.68848 4.05957 9.37793 3.98926C9.06738 3.91895 8.73047 3.88379 8.36719 3.88379C8.21484 3.88379 8.08008 3.88672 7.96289 3.89258C7.85156 3.89844 7.73145 3.91016 7.60254 3.92773C7.47949 3.93945 7.33594 3.95703 7.17188 3.98047C7.01367 4.00391 6.81445 4.0332 6.57422 4.06836H6.54785ZM27.7383 1.23828C27.5039 1.44336 27.2812 1.65723 27.0703 1.87988C26.8652 2.09668 26.6689 2.32812 26.4814 2.57422C27.0967 2.69727 27.6768 2.90234 28.2217 3.18945C28.7725 3.47656 29.2529 3.83984 29.6631 4.2793C30.0732 4.71875 30.3984 5.23438 30.6387 5.82617C30.8789 6.41211 30.999 7.06543 30.999 7.78613C30.999 8.58887 30.8789 9.31836 30.6387 9.97461C30.4043 10.625 30.0762 11.2051 29.6543 11.7148C29.2324 12.2188 28.7344 12.6553 28.1602 13.0244C27.5859 13.3936 26.9619 13.7012 26.2881 13.9473C25.6143 14.1875 24.9053 14.3633 24.1611 14.4746C23.4229 14.5918 22.6758 14.6504 21.9199 14.6504C21.6562 14.6504 21.3809 14.6445 21.0938 14.6328C20.8066 14.627 20.5283 14.6123 20.2588 14.5889C19.9951 14.5713 19.7461 14.542 19.5117 14.501C19.2832 14.4658 19.0957 14.4189 18.9492 14.3604C19.1543 14.1904 19.3418 14.0176 19.5117 13.8418C19.6816 13.666 19.8428 13.4844 19.9951 13.2969C19.3799 13.1738 18.7969 12.9805 18.2461 12.7168C17.6953 12.4531 17.2119 12.1191 16.7959 11.7148C16.3857 11.3047 16.0605 10.8184 15.8203 10.2559C15.5801 9.69336 15.46 9.0459 15.46 8.31348C15.46 7.46387 15.5977 6.69629 15.873 6.01074C16.1543 5.31934 16.5352 4.70996 17.0156 4.18262C17.502 3.64941 18.0703 3.19238 18.7207 2.81152C19.3711 2.4248 20.0713 2.1084 20.8213 1.8623C21.5713 1.61035 22.3506 1.42578 23.1592 1.30859C23.9736 1.19141 24.7793 1.13281 25.5762 1.13281C25.9219 1.13281 26.2705 1.1416 26.6221 1.15918C26.9795 1.17676 27.3516 1.20312 27.7383 1.23828ZM27.0527 7.03027C27.0527 6.69043 27.0117 6.38574 26.9297 6.11621C26.8477 5.84082 26.7334 5.59473 26.5869 5.37793C26.4404 5.16113 26.2646 4.97363 26.0596 4.81543C25.8604 4.65723 25.6406 4.51953 25.4004 4.40234C25.3066 4.61328 25.2217 4.82422 25.1455 5.03516C25.0752 5.24609 25.0078 5.46289 24.9434 5.68555C24.6035 5.56836 24.2842 5.48926 23.9854 5.44824C23.6924 5.40137 23.4199 5.37793 23.168 5.37793C22.7285 5.37793 22.2832 5.45703 21.832 5.61523C21.3809 5.76758 20.9736 5.99023 20.6104 6.2832C20.2529 6.57617 19.96 6.93066 19.7314 7.34668C19.5029 7.7627 19.3887 8.22852 19.3887 8.74414C19.3887 9.00781 19.4268 9.26562 19.5029 9.51758C19.585 9.76367 19.6963 10.001 19.8369 10.2295C19.9834 10.458 20.1533 10.6777 20.3467 10.8887C20.5459 11.0938 20.7598 11.29 20.9883 11.4775C21.0703 11.2314 21.1318 10.9883 21.1729 10.748C21.2197 10.502 21.249 10.2412 21.2607 9.96582C21.6475 10.165 22.0166 10.3027 22.3682 10.3789C22.7256 10.4551 23.0566 10.4932 23.3613 10.4932C23.8184 10.4932 24.2666 10.4141 24.7061 10.2559C25.1514 10.0977 25.5469 9.86914 25.8926 9.57031C26.2441 9.27148 26.5254 8.9082 26.7363 8.48047C26.9473 8.05273 27.0527 7.56934 27.0527 7.03027ZM46.96 13.4199C46.0283 13.4961 45.123 13.666 44.2441 13.9297C43.3711 14.1934 42.5127 14.5537 41.6689 15.0107C41.6045 14.2666 41.4814 13.543 41.2998 12.8398C41.1182 12.1309 40.8809 11.4365 40.5879 10.7568C40.0078 10.9268 39.4102 11.0117 38.7949 11.0117C38.4902 11.0117 38.1943 10.9941 37.9072 10.959C37.9189 11.5273 37.9336 12.0957 37.9512 12.6641C37.9688 13.2266 37.9922 13.792 38.0215 14.3604C37.8574 14.3428 37.6904 14.3252 37.5205 14.3076C37.3506 14.2959 37.1748 14.29 36.9932 14.29C36.3193 14.29 35.6074 14.3662 34.8574 14.5186C34.1133 14.6768 33.3311 14.8994 32.5107 15.1865C32.8389 14.2197 33.1201 13.25 33.3545 12.2773C33.5947 11.3047 33.7881 10.3203 33.9346 9.32422C33.4717 9.00781 33.0791 8.69141 32.7568 8.375C32.4404 8.05859 32.2031 7.79785 32.0449 7.59277C32.3613 7.69238 32.6895 7.7832 33.0293 7.86523C33.375 7.94727 33.7236 8.02344 34.0752 8.09375C34.1221 7.6543 34.1572 7.21777 34.1807 6.78418C34.2041 6.35059 34.2158 5.91113 34.2158 5.46582V4.94727C33.8584 5.06445 33.5039 5.19043 33.1523 5.3252C32.8008 5.45996 32.4609 5.60938 32.1328 5.77344C32.2207 5.44531 32.2881 5.12598 32.335 4.81543C32.3818 4.50488 32.4053 4.2002 32.4053 3.90137C32.4053 3.3916 32.3408 2.90234 32.2119 2.43359C32.083 1.96484 31.9014 1.51367 31.667 1.08008C33.0322 0.869141 34.2568 0.725586 35.3408 0.649414C36.4307 0.573242 37.4004 0.535156 38.25 0.535156C38.6484 0.535156 39.0996 0.546875 39.6035 0.570312C40.1133 0.587891 40.6348 0.634766 41.168 0.710938C41.707 0.78125 42.2402 0.886719 42.7676 1.02734C43.2949 1.16797 43.7783 1.36426 44.2178 1.61621C44.6572 1.8623 45.0322 2.16992 45.3428 2.53906C45.6592 2.90234 45.8701 3.34473 45.9756 3.86621V3.90137C46.1279 3.81348 46.2744 3.72266 46.415 3.62891C46.5615 3.5293 46.708 3.4209 46.8545 3.30371C46.7725 3.83691 46.6406 4.36719 46.459 4.89453C46.2773 5.42188 46.0488 5.93164 45.7734 6.42383C45.5039 6.91602 45.1904 7.38477 44.833 7.83008C44.4814 8.27539 44.0947 8.68262 43.6729 9.05176C44.5693 10.6338 45.665 12.0898 46.96 13.4199ZM40.3418 3.90137C40.0312 3.90137 39.6855 3.91602 39.3047 3.94531C38.9238 3.97461 38.4902 4.02148 38.0039 4.08594C37.9746 4.78906 37.9512 5.48926 37.9336 6.18652C37.916 6.88379 37.9072 7.58105 37.9072 8.27832C38.3643 8.21973 38.792 8.12012 39.1904 7.97949C39.5889 7.83887 39.9404 7.64551 40.2451 7.39941C40.5557 7.15332 40.8105 6.85156 41.0098 6.49414C41.2148 6.13086 41.3467 5.7002 41.4053 5.20215C41.6572 5.15527 41.9062 5.11133 42.1523 5.07031C42.4043 5.0293 42.6592 4.98242 42.917 4.92969V4.91211C42.7822 4.74805 42.6416 4.60449 42.4951 4.48145C42.3486 4.35254 42.1787 4.24707 41.9854 4.16504C41.792 4.07715 41.5635 4.0127 41.2998 3.97168C41.0361 3.9248 40.7168 3.90137 40.3418 3.90137ZM52.7959 0.895508C52.6084 2.12012 52.4648 3.35937 52.3652 4.61328C52.2715 5.86133 52.2246 7.12402 52.2246 8.40137C52.2246 9.3623 52.251 10.3145 52.3037 11.2578C52.3623 12.1953 52.4502 13.127 52.5674 14.0527C52.3213 14.0352 52.0811 14.0176 51.8467 14C51.6123 13.9883 51.3838 13.9824 51.1611 13.9824C50.6162 13.9824 50.0742 14.0117 49.5352 14.0703C48.9961 14.1348 48.4277 14.2314 47.8301 14.3604C48.0176 13.3232 48.167 12.2715 48.2783 11.2051C48.3896 10.1328 48.4453 9.04297 48.4453 7.93555C48.4453 6.98633 48.4014 6.04297 48.3135 5.10547C48.2256 4.16797 48.0879 3.2334 47.9004 2.30176C48.3164 2.24902 48.7207 2.18164 49.1133 2.09961C49.5117 2.01758 49.9102 1.91797 50.3086 1.80078C50.707 1.68359 51.1113 1.55176 51.5215 1.40527C51.9316 1.25293 52.3564 1.08301 52.7959 0.895508ZM67.957 7.98828C67.9746 8.11719 67.9834 8.24316 67.9834 8.36621C67.9893 8.48926 67.9922 8.60938 67.9922 8.72656C67.9922 9.3418 67.8955 9.91895 67.7021 10.458C67.5146 10.9971 67.2539 11.4922 66.9199 11.9434C66.5859 12.3945 66.1904 12.7988 65.7334 13.1562C65.2822 13.5137 64.79 13.8154 64.2568 14.0615C63.7236 14.3076 63.1641 14.4951 62.5781 14.624C61.998 14.7588 61.415 14.8262 60.8291 14.8262C60.2783 14.8262 59.748 14.8027 59.2383 14.7559C58.7285 14.709 58.2451 14.6855 57.7881 14.6855C57.4365 14.6855 57.1055 14.709 56.7949 14.7559C56.4844 14.8086 56.1973 14.9111 55.9336 15.0635C55.7168 14.2607 55.4854 13.5342 55.2393 12.8838C54.999 12.2275 54.7764 11.668 54.5713 11.2051C54.3311 10.666 54.0908 10.1826 53.8506 9.75488C54.5479 10.1182 55.2451 10.4053 55.9424 10.6162C56.6455 10.8271 57.3135 10.9912 57.9463 11.1084C58.5791 11.2197 59.1562 11.293 59.6777 11.3281C60.1992 11.3574 60.6328 11.3721 60.9785 11.3721C61.3652 11.3721 61.7549 11.3486 62.1475 11.3018C62.54 11.2549 62.9355 11.1816 63.334 11.082C63.2344 10.9473 63.1318 10.8271 63.0264 10.7217C62.9209 10.6162 62.8242 10.5312 62.7363 10.4668C62.6309 10.3906 62.5283 10.3262 62.4287 10.2734C62.2588 10.1914 62.0273 10.1123 61.7344 10.0361C61.4473 9.9541 61.125 9.86621 60.7676 9.77246C60.416 9.67871 60.0381 9.57617 59.6338 9.46484C59.2354 9.35352 58.8369 9.22461 58.4385 9.07812C58.0459 8.93164 57.668 8.76465 57.3047 8.57715C56.9473 8.38965 56.6279 8.17578 56.3467 7.93555C56.124 7.74219 55.9395 7.53418 55.793 7.31152C55.6465 7.08301 55.5293 6.85156 55.4414 6.61719C55.3594 6.37695 55.2979 6.13965 55.2568 5.90527C55.2217 5.66504 55.2012 5.43652 55.1953 5.21973C54.9902 5.30176 54.8057 5.38086 54.6416 5.45703C54.4775 5.5332 54.3369 5.59766 54.2197 5.65039L53.8682 5.82617C54.0791 5.19336 54.3721 4.63379 54.7471 4.14746C55.1279 3.66113 55.5527 3.23926 56.0215 2.88184C56.4961 2.52441 57 2.22266 57.5332 1.97656C58.0723 1.73047 58.6055 1.52832 59.1328 1.37012C60.3633 1.00098 61.6963 0.790039 63.1318 0.737305C63.5771 0.737305 64.0518 0.719727 64.5557 0.68457C64.9893 0.655273 65.4844 0.611328 66.041 0.552734C66.5977 0.488281 67.1836 0.397461 67.7988 0.280273C67.6113 0.561523 67.459 0.866211 67.3418 1.19434C67.2305 1.52246 67.1426 1.85352 67.0781 2.1875C67.0137 2.52148 66.9697 2.85254 66.9463 3.18066C66.9229 3.50293 66.9111 3.79883 66.9111 4.06836C66.9111 4.25 66.9141 4.41406 66.9199 4.56055C66.9258 4.70703 66.9346 4.83301 66.9463 4.93848C66.958 5.06152 66.9727 5.17285 66.9902 5.27246C65.9648 4.80957 64.9658 4.4873 63.9932 4.30566C63.0205 4.11816 62.0801 4.02441 61.1719 4.02441C60.8613 4.02441 60.5654 4.03613 60.2842 4.05957C60.0029 4.07715 59.7217 4.10352 59.4404 4.13867C59.5049 4.41992 59.6191 4.6543 59.7832 4.8418C59.9531 5.0293 60.123 5.18164 60.293 5.29883C60.4922 5.43359 60.7061 5.53906 60.9346 5.61523C61.3799 5.75586 61.8633 5.92871 62.3848 6.13379C62.9062 6.33301 63.4277 6.58203 63.9492 6.88086C64.4707 7.17969 64.9717 7.53125 65.4521 7.93555C65.9326 8.33984 66.3545 8.80859 66.7178 9.3418C66.9404 9.1543 67.1572 8.94922 67.3682 8.72656C67.5791 8.49805 67.7754 8.25195 67.957 7.98828Z" fill="black"/>
</svg>
